<svg width="740" height="428" viewBox="0 0 740 428" fill="none" xmlns="http://www.w3.org/2000/svg">
<path d="M292.667 2.66667C236.933 5.46667 216.4 8.26667 207.867 14.4C196.667 22.2667 167.067 52.9333 149.467 74.6667C137.867 89.2 112.667 124.267 112.667 126.133C112.667 128.667 106 128.8 100.4 126.267C89.7333 121.467 83.3333 112.267 86 105.333C86.8 103.333 87.3333 98.9333 87.3333 95.3333C87.3333 89.4667 86.8 88.4 82.9333 85.4667C77.4666 81.3333 74.1333 81.2 58.5333 84.5333C43.3333 87.8667 34.9333 90.6667 28.1333 95.0667C21.6 99.0667 19.4666 101.733 19.3333 105.467C19.2 112.933 33.0666 118 65.0666 122.133C74.2666 123.333 77.0666 124.133 78.1333 126.267C80.1333 130 77.7333 132.267 70.2666 133.333C60.5333 134.8 45.7333 138.667 40.4 141.2C32 145.2 17.2 161.6 19.7333 164.133C20.1333 164.667 21.4666 164 22.6666 162.8C40.1333 145.333 71.8666 138.667 96.5333 147.2C109.733 151.733 129.867 165.867 151.333 185.467C154.667 188.4 164.267 197.067 172.667 204.8C181.067 212.4 190.8 221.2 194.267 224.533C202 231.6 206 234.533 206.933 233.6C207.333 233.2 206 231.2 204 229.067C187.333 211.6 139.333 151.067 139.333 147.467C139.333 145.467 140.8 145.6 163.333 149.333C276.933 168.133 474.8 167.333 584.933 147.733C591.333 146.667 597.467 146 598.667 146.533C601.6 147.6 598.4 152.667 578.4 178C570.933 187.467 551.467 210.933 543.333 220.133C534 230.667 532.4 232.8 533.2 233.733C534.133 234.533 533.6 234.933 555.333 215.2C563.733 207.6 575.733 196.8 582 191.2C624 153.2 641.6 143.333 666.667 143.333C683.6 143.333 702.933 150.267 713.867 160C716.933 162.8 719.733 164.667 720.133 164.267C722.533 162 708.133 145.733 700 141.733C694.4 138.8 680.267 134.933 669.733 133.333C666.267 132.8 662.4 131.6 661.067 130.667C658.8 128.933 658.8 128.667 661.333 126.133C663.333 124 666.933 122.933 675.333 122C711.067 117.6 725.467 110.533 718.4 100.933C713.467 94.2667 699.6 88.2667 679.067 84C667.333 81.6 662.8 81.4667 658.933 83.6C653.333 86.5333 652.667 88.6667 653.067 102.533L653.333 115.6L647.467 120.8C641.467 126.133 632.667 129.6 629.467 127.733C628.4 127.2 623.467 120.667 618.533 113.333C598.8 83.8667 579.867 60.9333 553.333 34.5333C542.133 23.3333 531.333 13.4667 529.2 12.2667C511.2 3.20001 386.4 -1.86666 292.667 2.66667Z" fill="#003FB8"/>
<path d="M15.8666 201.867C8.39994 206.4 5.99994 211.333 5.99994 221.733V231.067L14.3999 237.733C41.7333 259.467 84.1333 279.467 130.667 292.667C154.4 299.467 195.467 308.4 216 311.333C221.867 312.133 230 313.333 234 314C242.267 315.467 270.8 318.4 298 320.8C325.733 323.2 418.667 322.8 449.333 320.133C504.4 315.333 550.933 307.867 590 297.733C598.4 295.467 607.2 293.333 609.333 292.667C616.667 290.933 646.533 280.533 658 275.733C684.8 264.667 712.667 248.533 727.2 235.867L734.267 229.6L733.733 220.8C732.933 205.2 725.867 199.333 708 199.333C690.4 199.333 664 210.267 638.267 228.267C630.4 233.733 623.733 238.667 623.333 239.2C622.933 239.6 618.667 243.467 613.6 247.733C604.667 255.467 593.067 268.933 585.067 280.8C581.333 286.267 580 287.067 573.067 288.533C568.8 289.467 563.6 290.8 561.333 291.333C557.733 292.267 551.733 293.467 524.667 298C459.6 309.2 350.933 312 269.333 304.667C238.133 301.867 217.2 298.933 187.333 293.2C158.933 287.733 160.133 288.267 150.667 275.333C140.4 261.333 119.867 241.333 104.4 230.267C98.1333 225.733 92.3999 222 91.5999 222C90.9333 222 89.7333 221.2 88.9333 220.267C87.1999 218.133 67.0666 208.133 57.3333 204.533C41.5999 198.667 22.9333 197.467 15.8666 201.867Z" fill="#003FB8"/>
<path d="M0.666626 291.333C0.666626 318.267 1.73329 336.267 4.79996 360C6.26663 371.333 6.26663 372.267 3.46663 376.667C1.99996 379.2 0.666626 382.267 0.666626 383.467C0.666626 385.6 7.06663 392.133 12.6666 395.6C14.8 396.933 16.6666 400 17.8666 404C18.9333 407.467 21.6 412.133 24 414.533C28.4 418.933 31.0666 419.6 63.6 424.667C76.1333 426.667 120.533 427.867 133.333 426.667C144.267 425.733 145.867 424.8 153.733 414.8C155.2 412.933 157.6 412.8 171.067 413.467C180.133 414 188.933 413.733 192 412.933C194.933 412.133 200.8 410.667 205.067 409.467C211.867 407.6 230.533 407.333 369.467 407.333H526L539.067 410.8C550.933 414 553.467 414.267 568.267 413.467L584.533 412.667L588.267 417.867C590.267 420.8 593.467 424 595.2 424.933C599.467 427.2 657.867 427.2 674.667 424.933C693.733 422.267 709.067 419.2 712.8 417.2C716.133 415.6 719.733 409.6 723.2 400.4C724 398.4 726.933 395.333 729.733 393.467C732.533 391.733 735.867 388.667 737.2 386.667C739.467 383.2 739.467 382.933 736.533 377.333C733.2 371.2 733.2 374.133 738.133 328.667C739.733 313.867 739.733 267.733 738.133 266.667C736.667 265.867 735.733 271.333 734 292.133C732.267 314.133 727.333 331.6 718.267 348.667C710.667 362.933 709.333 364.133 699.6 367.867C671.867 378.267 636 385.733 600 388.667C585.867 389.733 554.533 390.667 548.4 390.133C547.2 390.133 544.267 386.8 542 383.067C535.733 372.8 528.4 364.533 520.133 358.133L512.8 352.533L491.067 351.067C462.133 349.067 282.133 348.933 251.067 350.933C228.267 352.4 227.333 352.533 221.733 356.4C214.133 361.6 203.733 372.933 198 382C195.6 386 193.333 389.6 193.067 390C191.6 391.867 133.6 388.8 114.667 385.867C73.3333 379.467 34.5333 368.667 28.9333 362C24.9333 357.333 12.5333 329.867 9.86663 320C8.39996 314.133 6.26663 300.133 5.33329 288.933C2.53329 258.133 0.799959 258.933 0.666626 291.333Z" fill="#003FB8"/>
</svg>
